<?xml version="1.0" encoding="UTF-8"?>
<svg width="100%" height="100%" version="1.1" viewBox="0 0 198.61 187.42" xmlns="http://www.w3.org/2000/svg" fill="#000000" stroke="#000000">
	<g transform="translate(-5.5155 -66.535)">
		<g transform="matrix(7.0033 0 0 6.6731 -1497.1 -2114.6)" stroke-width=".038703" style="shape-inside:url(#rect1574);white-space:pre" aria-label="V">
			<path d="m233.92 326.86h9.0039v1.0742q-1.5234 0.0781-2.8516 1.7383-1.3281 1.6406-2.6367 4.9414l-8.0859 20.332h-1.0742l-9.9609-23.73q-0.85938-2.168-1.4453-2.6758-0.58594-0.52734-2.3047-0.60547v-1.0742h11.758v1.0742h-0.33203q-1.3086 0-2.0117 0.46875-0.70312 0.46875-0.70312 1.2891 0-0.0586 0.11718 0.66406 0.13672 0.72265 0.29297 1.0938l7.1094 17.012 5.1172-12.852q1.0938-2.6758 1.0938-4.3555 0-1.582-0.82032-2.4414-0.80078-0.87891-2.2656-0.87891zm5.8398 1.0742h-3.8476q1.5625 0.89844 1.6797 3.0859 0.85938-2.0898 2.168-3.0859zm-20.84 3.0078 9.5898 22.949q0.56641-1.0547 0.56641-1.5039 0-0.46875-0.56641-1.6797l-8.1836-19.609q-0.52735-1.2695-0.91797-1.9336-0.39063-0.66406-0.99609-0.97656-0.60547-0.33203-1.6992-0.41016 0.72265 0.27344 1.1523 0.9375 0.42969 0.66407 1.0547 2.2266z" stroke-width=".038703" />
		</g>
	</g>
</svg>
